<svg width="150" height="19" viewBox="0 0 150 19" fill="none" xmlns="http://www.w3.org/2000/svg">
<g clip-path="url(#clip0_10_5)">
<path d="M8.88611 6.58667C8.88611 6.58667 8.72966 6.23833 8.60451 6.08C8.19775 5.63667 7.69712 5.28833 7.10263 5.035C6.50814 4.78167 5.81978 4.68667 5.06884 4.68667C4.06758 4.68667 3.19149 4.87667 2.44055 5.28833C1.68961 5.7 1.09512 6.27 0.657071 7.03C0.219024 7.82167 0 8.70833 0 9.72167C0 10.5133 0.125156 11.21 0.375469 11.8433C0.625782 12.4767 0.969962 12.9833 1.40801 13.4583C1.84606 13.9017 2.37797 14.25 3.00375 14.4717C3.62954 14.6933 4.3179 14.82 5.03755 14.82C6.07009 14.82 6.91489 14.5983 7.63454 14.1867C8.19775 13.8383 8.63579 13.3633 8.97997 12.825V14.63H11.3267V0H8.88611V6.58667ZM8.51064 11.4633C8.26033 11.9383 7.88486 12.2867 7.38423 12.54C6.8836 12.7933 6.3204 12.8883 5.69462 12.8883C5.06884 12.8883 4.50563 12.7617 4.0363 12.5083C3.56696 12.255 3.19149 11.9067 2.94118 11.4317C2.69086 10.9567 2.53442 10.3867 2.53442 9.72167C2.53442 9.05667 2.65957 8.48667 2.90989 8.01167C3.1602 7.53667 3.53567 7.18833 4.00501 6.96667C4.47434 6.71333 5.03755 6.61833 5.66333 6.61833C6.13267 6.61833 6.602 6.68167 6.97747 6.80833C7.38423 6.935 7.72841 7.15667 8.01001 7.41C8.29161 7.695 8.51064 8.01167 8.66708 8.39167C8.82353 8.77167 8.88611 9.215 8.88611 9.72167C8.88611 10.4183 8.76095 10.9883 8.47935 11.4633H8.51064ZM20.7134 4.78167C20.7134 4.78167 20.9324 4.78167 21.0576 4.78167V7.09333C20.3379 7.09333 19.6809 7.15667 19.1176 7.28333C18.5544 7.41 18.0851 7.6 17.7409 7.885C17.3655 8.17 17.1151 8.55 16.9274 9.025C16.7397 9.5 16.6458 10.1017 16.6458 10.83V14.63H14.174V4.845H16.5207V7.41C16.5207 7.41 16.5519 7.22 16.5832 7.15667C16.9274 6.365 17.428 5.795 18.0538 5.38333C18.6796 4.97167 19.4618 4.78167 20.3379 4.78167C20.4631 4.78167 20.5569 4.78167 20.6821 4.78167H20.7134ZM30.5382 4.845H32.9787V14.63H30.6633V12.635C30.3192 13.3317 29.8498 13.87 29.1927 14.25C28.5357 14.63 27.7534 14.82 26.8461 14.82C26.1577 14.82 25.5632 14.725 25.0313 14.535C24.4994 14.345 24.0613 14.0917 23.7171 13.7117C23.373 13.3317 23.1227 12.8883 22.9349 12.35C22.7472 11.8117 22.6533 11.21 22.6533 10.5133V4.87667H25.1252V9.91167C25.1252 10.45 25.1877 10.8933 25.2816 11.2733C25.3755 11.6533 25.5632 11.9383 25.7509 12.16C25.97 12.3817 26.2203 12.5717 26.5332 12.6667C26.8461 12.7617 27.2215 12.825 27.6283 12.825C28.2228 12.825 28.7234 12.6983 29.1302 12.445C29.5369 12.1917 29.8811 11.8117 30.1001 11.2733C30.3191 10.735 30.4443 10.0383 30.4443 9.18333V4.87667L30.5382 4.845ZM45.9011 7.125C46.0576 7.66333 46.1514 8.265 46.1514 8.96167V14.63H43.6796V9.595C43.6796 9.05667 43.617 8.61333 43.5232 8.265C43.4293 7.91667 43.2728 7.6 43.0538 7.37833C42.8348 7.15667 42.5845 6.96667 42.2716 6.87167C41.9587 6.77667 41.5832 6.71333 41.1765 6.71333C40.6133 6.71333 40.1126 6.84 39.6746 7.09333C39.2365 7.34667 38.9237 7.72667 38.6733 8.265C38.423 8.80333 38.3292 9.46833 38.3292 10.3233V14.63H35.8573V4.845H38.204V6.84C38.5482 6.14333 39.0488 5.605 39.6746 5.225C40.3317 4.845 41.1139 4.655 42.0526 4.655C42.7409 4.655 43.3354 4.75 43.836 4.94C44.3367 5.13 44.7747 5.415 45.1502 5.76333C45.4944 6.11167 45.776 6.555 45.9324 7.09333L45.9011 7.125ZM53.8798 9.595L59.3867 14.63H56.1014L51.2516 10.1333V14.63H48.811V0H51.2829V9.43667L55.7259 4.845H58.6671L53.9424 9.595H53.8798ZM91.4581 6.58667C91.4581 6.58667 91.3016 6.23833 91.1765 6.08C90.7697 5.63667 90.2691 5.28833 89.6746 5.035C89.0801 4.78167 88.3917 4.68667 87.6408 4.68667C86.6396 4.68667 85.7635 4.87667 85.0125 5.28833C84.2616 5.7 83.6358 6.27 83.229 7.03C82.791 7.79 82.6033 8.67667 82.6033 9.72167C82.6033 10.5133 82.7284 11.21 82.9787 11.8433C83.229 12.4767 83.5732 12.9833 84.0113 13.4583C84.4493 13.9017 84.9812 14.25 85.607 14.4717C86.2328 14.6933 86.9212 14.82 87.6408 14.82C88.6733 14.82 89.5182 14.5983 90.2378 14.1867C90.801 13.8383 91.2391 13.3633 91.5832 12.825V14.63H93.9299V0H91.4894V6.58667H91.4581ZM91.0826 11.4633C90.8323 11.9383 90.4568 12.2867 89.9562 12.54C89.4556 12.7933 88.8924 12.8883 88.2666 12.8883C87.6408 12.8883 87.0776 12.7617 86.6083 12.5083C86.1389 12.255 85.7635 11.9067 85.5131 11.4317C85.2628 10.9567 85.1064 10.3867 85.1064 9.72167C85.1064 9.05667 85.2315 8.48667 85.4819 8.01167C85.7322 7.53667 86.1076 7.18833 86.577 6.96667C87.0463 6.71333 87.6095 6.61833 88.2666 6.61833C88.7359 6.61833 89.2053 6.68167 89.5807 6.80833C89.9875 6.935 90.3317 7.15667 90.6133 7.41C90.8949 7.695 91.1139 8.01167 91.2703 8.39167C91.4268 8.77167 91.4894 9.215 91.4894 9.72167C91.4894 10.4183 91.3642 10.9883 91.0826 11.4633ZM104.85 5.28833C104.005 4.87667 103.004 4.655 101.846 4.655C100.688 4.655 99.6245 4.87667 98.7797 5.28833C97.9036 5.7 97.2779 6.30167 96.8085 7.06167C96.3392 7.82167 96.1514 8.70833 96.1514 9.72167C96.1514 10.735 96.3705 11.6217 96.8398 12.3817C97.2779 13.1417 97.9349 13.7433 98.811 14.155C99.6871 14.5667 100.72 14.7883 101.971 14.7883C102.972 14.7883 103.849 14.6617 104.568 14.3767C105.319 14.0917 105.914 13.7117 106.383 13.205C106.852 12.6983 107.134 12.0967 107.29 11.4317H104.912C104.819 11.7167 104.631 12.0017 104.349 12.2233C104.068 12.445 103.755 12.635 103.348 12.7617C102.941 12.8883 102.503 12.9517 101.971 12.9517C101.283 12.9517 100.688 12.825 100.188 12.5717C99.6871 12.3183 99.2803 11.97 98.9987 11.495C98.811 11.1783 98.7797 10.7667 98.7171 10.355H107.416V9.72167C107.416 8.67667 107.196 7.75833 106.758 6.99833C106.32 6.23833 105.695 5.63667 104.85 5.225V5.28833ZM100.156 6.80833C100.657 6.555 101.22 6.42833 101.846 6.42833C102.472 6.42833 103.066 6.555 103.567 6.80833C104.068 7.06167 104.443 7.41 104.693 7.85333C104.85 8.10667 104.85 8.455 104.912 8.77167H98.7484C98.811 8.48667 98.811 8.10667 98.9675 7.885C99.2491 7.41 99.6245 7.06167 100.125 6.80833H100.156ZM118.21 10.2917C118.461 10.64 118.586 11.115 118.586 11.7167C118.586 12.7617 118.179 13.5217 117.397 14.06C116.583 14.5983 115.457 14.8517 113.986 14.8517C112.954 14.8517 112.046 14.725 111.295 14.4717C110.544 14.2183 109.981 13.87 109.574 13.3633C109.168 12.8883 108.98 12.3183 108.98 11.685H111.358C111.358 12.0017 111.483 12.255 111.702 12.4767C111.921 12.6983 112.234 12.8567 112.61 12.9517C112.985 13.0467 113.423 13.11 113.924 13.11C114.643 13.11 115.175 13.015 115.582 12.7933C115.989 12.5717 116.176 12.2867 116.176 11.875C116.176 11.5267 116.051 11.305 115.801 11.115C115.551 10.9567 115.207 10.83 114.831 10.7667C114.424 10.7033 113.986 10.6083 113.486 10.5767C112.985 10.5133 112.484 10.45 111.984 10.3867C111.483 10.3233 111.045 10.165 110.607 9.975C110.2 9.785 109.856 9.53167 109.606 9.15167C109.355 8.80333 109.23 8.32833 109.23 7.75833C109.23 6.77667 109.606 5.985 110.388 5.47833C111.17 4.94 112.265 4.68667 113.736 4.68667C114.706 4.68667 115.519 4.81333 116.208 5.035C116.896 5.28833 117.428 5.605 117.804 6.04833C118.179 6.49167 118.367 7.03 118.398 7.63167H116.083C116.083 7.22 115.832 6.90333 115.426 6.68167C115.019 6.42833 114.487 6.33333 113.83 6.33333C113.141 6.33333 112.578 6.42833 112.203 6.65C111.827 6.87167 111.64 7.18833 111.64 7.6C111.64 7.91667 111.765 8.13833 112.015 8.29667C112.265 8.455 112.61 8.58167 113.016 8.645C113.423 8.70833 113.892 8.77167 114.393 8.835C114.894 8.89833 115.394 8.96167 115.864 9.05667C116.333 9.15167 116.802 9.27833 117.209 9.46833C117.616 9.65833 117.96 9.91167 118.21 10.26V10.2917ZM120.776 4.845H123.248V14.63H120.776V4.845ZM120.588 0.475H123.498V2.97667H120.588V0.475ZM134.512 6.71333C134.168 6.14333 133.73 5.63667 133.135 5.28833C132.416 4.87667 131.571 4.655 130.601 4.655C129.631 4.655 128.692 4.845 127.91 5.25667C127.159 5.66833 126.533 6.23833 126.126 6.99833C125.688 7.75833 125.469 8.645 125.469 9.69C125.469 10.45 125.595 11.1467 125.845 11.78C126.095 12.4133 126.439 12.92 126.909 13.3633C127.378 13.8067 127.91 14.155 128.504 14.3767C129.13 14.5983 129.787 14.725 130.538 14.725C131.539 14.725 132.384 14.5033 133.104 14.0917C133.636 13.775 134.074 13.3 134.418 12.7933V14.345C134.418 14.9783 134.293 15.5167 134.074 15.9283C133.855 16.34 133.511 16.6567 133.073 16.8467C132.635 17.0367 132.071 17.1317 131.383 17.1317C130.757 17.1317 130.257 17.0683 129.881 16.9417C129.506 16.815 129.193 16.6567 128.942 16.435C128.692 16.2133 128.536 15.9917 128.442 15.7067H126.033C126.126 16.3717 126.408 16.9417 126.815 17.4167C127.253 17.8917 127.847 18.2717 128.598 18.525C129.349 18.7783 130.288 18.9367 131.383 18.9367C132.572 18.9367 133.542 18.7467 134.355 18.3983C135.169 18.05 135.763 17.5117 136.202 16.815C136.608 16.1183 136.827 15.2317 136.827 14.2183V4.845H134.512V6.71333ZM134.011 11.4633C133.761 11.9383 133.385 12.2867 132.885 12.54C132.384 12.7933 131.821 12.8883 131.195 12.8883C130.569 12.8883 130.006 12.7617 129.537 12.5083C129.068 12.255 128.692 11.9067 128.442 11.4317C128.191 10.9567 128.035 10.3867 128.035 9.72167C128.035 9.05667 128.16 8.48667 128.411 8.01167C128.661 7.53667 129.036 7.18833 129.506 6.96667C129.975 6.71333 130.538 6.61833 131.195 6.61833C131.665 6.61833 132.134 6.68167 132.509 6.80833C132.916 6.935 133.26 7.15667 133.542 7.41C133.824 7.695 134.043 8.01167 134.199 8.39167C134.355 8.77167 134.418 9.215 134.418 9.72167C134.418 10.4183 134.293 10.9883 134.011 11.4633ZM150 8.96167V14.63H147.528V9.595C147.528 9.05667 147.466 8.61333 147.372 8.265C147.278 7.91667 147.121 7.6 146.902 7.37833C146.683 7.15667 146.433 6.96667 146.12 6.87167C145.807 6.77667 145.432 6.71333 145.025 6.71333C144.462 6.71333 143.961 6.84 143.523 7.09333C143.085 7.34667 142.772 7.72667 142.522 8.265C142.272 8.80333 142.178 9.46833 142.178 10.3233V14.63H139.706V4.845H142.053V6.84C142.397 6.14333 142.897 5.605 143.523 5.225C144.18 4.845 144.962 4.655 145.901 4.655C146.589 4.655 147.184 4.75 147.685 4.94C148.185 5.13 148.623 5.415 148.999 5.76333C149.343 6.11167 149.625 6.555 149.781 7.09333C149.937 7.63167 150.031 8.23333 150.031 8.93L150 8.96167ZM74.2803 0.728333C73.2791 0.253333 72.1214 0 70.8385 0C69.5557 0 68.4293 0.253333 67.428 0.728333C66.4268 1.20333 65.6446 1.9 65.0814 2.78667C64.5182 3.67333 64.2365 4.71833 64.2365 5.985C64.2365 7.25167 64.5182 8.29667 65.0814 9.18333C65.6446 10.07 66.4268 10.7667 67.428 11.2733C68.4293 11.78 69.587 12.0333 70.8385 12.0333C72.0901 12.0333 73.2791 11.78 74.2803 11.2733C75.2816 10.7667 76.0638 10.07 76.627 9.18333C77.1902 8.29667 77.4718 7.22 77.4718 5.985C77.4718 4.75 77.1902 3.67333 76.627 2.78667C76.0638 1.9 75.2816 1.235 74.2803 0.728333ZM75.7822 8.70833C75.3129 9.5 74.6558 10.1017 73.811 10.5133C72.9662 10.925 71.965 11.1467 70.8073 11.1467C69.6496 11.1467 68.6483 10.925 67.8035 10.5133C66.9587 10.1017 66.3016 9.46833 65.8323 8.70833C65.363 7.91667 65.1439 6.99833 65.1439 5.985C65.1439 4.97167 65.363 4.05333 65.8323 3.29333C66.3016 2.53333 66.9587 1.96333 67.8035 1.55167C68.6483 1.14 69.6496 0.95 70.8073 0.95C71.965 0.95 72.9662 1.14 73.811 1.55167C74.6558 1.96333 75.3129 2.53333 75.7822 3.29333C76.2516 4.05333 76.4706 4.94 76.4706 5.985C76.4706 7.03 76.2203 7.94833 75.7509 8.70833H75.7822ZM73.1852 6.01667C73.4668 5.63667 73.592 5.225 73.592 4.71833C73.592 4.05333 73.373 3.515 72.9349 3.135C72.4969 2.755 71.7772 2.53333 70.7447 2.53333H69.4618H68.9925H68.0225V9.15167H69.4305V6.96667H70.4944C70.5882 6.96667 70.6508 6.96667 70.7447 6.96667L72.403 9.18333H74.1865L72.1214 6.52333C72.5282 6.39667 72.9349 6.27 73.1539 6.01667H73.1852ZM70.4005 5.92167H69.4618V3.73667H70.6195C70.9637 3.73667 71.2453 3.76833 71.4643 3.83167C71.6834 3.895 71.8711 4.02167 71.965 4.18C72.0588 4.33833 72.1214 4.52833 72.1214 4.78167C72.1214 5.16167 71.965 5.44667 71.6834 5.63667C71.4018 5.82667 70.9637 5.89 70.4005 5.89V5.92167Z" fill="white"/>
</g>
<defs>
<clipPath id="clip0_10_5">
<rect width="150" height="19" fill="white"/>
</clipPath>
</defs>
</svg>
